<svg xmlns="http://www.w3.org/2000/svg" viewBox="0 0 244.01 244.01"><title>0</title><rect x="-423.34" y="-1630.3" width="3748.34" height="2732.18" fill="#19232b"/><path d="M119.79,71.31c21.19,0,32.62,12.61,32.62,26.77,0,9.75-5.06,17.42-13.38,21.71v.39c8.83,3.38,16.37,11.57,16.37,23.53,0,14.82-12.6,29-36,29-10.66,0-20.54-3-28.34-9V143.06a33.7,33.7,0,0,0,25,10.79c10.53,0,18.07-4.94,18.07-12.48,0-7-6.11-12.09-18.2-12.09H103.67V113.16h10c12.48,0,18.07-5.07,18.07-11.69,0-6.37-5.46-11.44-15.86-11.44A32.78,32.78,0,0,0,93,99V79.89C99.25,74.82,108.74,71.31,119.79,71.31Z" fill="#55baff"/></svg>