<svg xmlns="http://www.w3.org/2000/svg" viewBox="0 0 244.01 244.01"><title>0</title><rect x="-515.89" y="-2105.25" width="3748.34" height="2732.18" fill="#19232b"/><path d="M157.24,137.78c0,19.63-15.2,35.35-37.3,35.35S82.76,157.41,82.76,138.3c0-12.09,6.24-22.49,14.69-32.37l25.87-32h25.09l-25.87,32.24a12.61,12.61,0,0,1,2.21-.13C141.52,106.06,157.24,119.58,157.24,137.78Zm-21.05.39c0-10.79-8.45-16.9-18.07-16.9a24.56,24.56,0,0,0-9,1.82c-3.77,4.81-5.72,9.23-5.72,14.95a16.38,16.38,0,1,0,32.76.13Z" fill="#55baff"/></svg>