<svg xmlns="http://www.w3.org/2000/svg" viewBox="0 0 244.01 244.01"><title>0</title><rect x="-1189.01" y="-2105.25" width="3748.34" height="2732.18" fill="#19232b"/><path d="M155.46,144.5c0,15.34-13.38,28.47-36.52,28.47-22.75,0-36.4-13.26-36.4-28.47a24.77,24.77,0,0,1,16.25-23.66v-.26A23.52,23.52,0,0,1,85.27,98.74c0-14.3,12.22-27.17,33.67-27.17s33.66,12.87,33.66,27a23.78,23.78,0,0,1-13.51,22v.26C150,125,155.46,134.1,155.46,144.5Zm-52.12-1.95c0,6.89,5.59,13.26,15.6,13.26,10.27,0,15.86-6.37,15.86-13.26,0-7.15-5.85-13.26-15.86-13.26S103.34,135.4,103.34,142.55Zm15.6-28.6c9,0,14.3-5.72,14.3-12.48,0-6.24-5.2-12.48-14.3-12.48s-14.17,6.11-14.17,12.48C104.77,108.23,110.1,114,118.94,114Z" fill="#55baff"/></svg>