<?xml version="1.0" encoding="utf-8"?>
<!-- Generator: Adobe Illustrator 23.1.1, SVG Export Plug-In . SVG Version: 6.00 Build 0)  -->
<svg version="1.1" id="レイヤー_1" xmlns="http://www.w3.org/2000/svg" xmlns:xlink="http://www.w3.org/1999/xlink" x="0px"
	 y="0px" viewBox="0 0 244 244" style="enable-background:new 0 0 244 244;" xml:space="preserve">
<style type="text/css">
	.st0{fill:#19232B;}
	.st1{fill:#55BAFF;}
</style>
<title>0</title>
<rect class="st0" width="244" height="244"/>
<path class="st1" d="M120,67.6c-30.1,0-54.4,24.4-54.4,54.5s24.4,54.4,54.5,54.4c9,0,17.9-2.3,25.9-6.6h28.5V122
	C174.5,91.9,150.1,67.5,120,67.6C120,67.5,120,67.5,120,67.6z M120,96.1c14.4,0,26,11.6,26,25.9s-11.6,26-25.9,26s-26-11.6-26-25.9
	c0,0,0,0,0,0C94,107.7,105.7,96.1,120,96.1z"/>
</svg>
