<svg xmlns="http://www.w3.org/2000/svg" viewBox="0 0 244.01 244.01"><title>0</title><rect x="-1016.52" y="-946.64" width="3748.34" height="2732.18" fill="#19232b"/><path d="M123.74,173.24q17.79,0,28.34-8.12t10.81-23.93v-.36q-.36-13.62-9.9-20.23t-24.11-10.26a84.92,84.92,0,0,1-11.59-4q-4-1.83-4-4.52v-.36a3.83,3.83,0,0,1,2-3.3,11,11,0,0,1,5.83-1.31,46.67,46.67,0,0,1,13.32,2.37,81.71,81.71,0,0,1,15,6.5l11.51-21.26a69.1,69.1,0,0,0-18.62-8.23,77.3,77.3,0,0,0-20.89-2.92q-16.94.08-27.52,8.21T83,105v.35q.36,14.13,9.9,20.72t24.11,10a84.34,84.34,0,0,1,11.51,3.74q3.9,1.72,3.92,4.41v.36a4.19,4.19,0,0,1-2.06,3.83c-1.39.87-3.54,1.3-6.45,1.31a52.7,52.7,0,0,1-16.09-2.77A70.72,70.72,0,0,1,91,138.71L78.39,159.08A74,74,0,0,0,100,169.75,81.26,81.26,0,0,0,123.74,173.24Z" fill="#55baff" fill-rule="evenodd"/></svg>