<svg xmlns="http://www.w3.org/2000/svg" viewBox="0 0 244.01 244.01"><title>0</title><rect x="-1585.31" y="-2105.25" width="3748.34" height="2732.18" fill="#19232b"/><path d="M158.85,106.39c0,11.57-5.72,22.23-14.42,32.36l-26,32.11H93.34l25.48-32h-.91c-17.55,0-32.76-13.13-32.76-31.84,0-19.37,15.08-35.36,37.05-35.36S158.85,87.28,158.85,106.39Zm-20.4.39c0-9-6.5-16.51-16.12-16.51s-16.25,7.67-16.25,16.51c0,10,7.54,16.77,17.29,16.77a24.54,24.54,0,0,0,9.1-1.69C136.24,116.91,138.45,112.5,138.45,106.78Z" fill="#55baff"/></svg>