<svg xmlns="http://www.w3.org/2000/svg" viewBox="0 0 244.01 244.01"><title>0</title><rect x="-1803.44" y="-1508.3" width="3748.34" height="2732.18" fill="#19232b"/><path d="M196.74,136.87a2.86,2.86,0,1,0-.8-5.67l-11.15,1.57c0-.64.06-1.28.06-1.93a50.16,50.16,0,0,0-6.6-24.78c1.3-12.13,2.49-30,.07-41.57a1.53,1.53,0,0,0-1.91-1.13c-5.07,1.4-21.62,6.31-35.92,14.47a69.83,69.83,0,0,0-35.7,0C90.5,69.66,74,64.76,68.91,63.36A1.52,1.52,0,0,0,67,64.49C64.59,76,65.76,93.73,67,105.86a50.18,50.18,0,0,0-6.71,25c0,1,0,2,.1,3L42,131.2a2.86,2.86,0,1,0-.8,5.67l19.93,2.82c.24,1.35.55,2.68.9,4l-19.59,3.42a2.87,2.87,0,0,0,1,5.65l20.42-3.57c8.52,21.54,31.59,37,58.73,37,26.65,0,49.37-14.89,58.26-35.81l13.66,2.39a2.87,2.87,0,1,0,1-5.65l-12.69-2.21a48.52,48.52,0,0,0,1.41-6.26Z" fill="#55baff"/></svg>